<mxfile host="Electron" modified="2024-04-15T16:22:54.056Z" agent="Mozilla/5.0 (Macintosh; Intel Mac OS X 10_15_7) AppleWebKit/537.36 (KHTML, like Gecko) draw.io/24.2.5 Chrome/120.0.6099.109 Electron/28.1.0 Safari/537.36" etag="SX340X5dFv_QXvAaMQnU" version="24.2.5" type="device">
  <diagram name="Page-1" id="UBwUC96RTODOPMP96Wko">
    <mxGraphModel dx="2295" dy="1118" grid="1" gridSize="10" guides="1" tooltips="1" connect="1" arrows="1" fold="1" page="1" pageScale="1" pageWidth="827" pageHeight="1169" math="0" shadow="0">
      <root>
        <mxCell id="0" />
        <mxCell id="1" parent="0" />
        <mxCell id="pCDew1cv899dJtl3083m-31" value="" style="ellipse;shape=cloud;whiteSpace=wrap;html=1;" vertex="1" parent="1">
          <mxGeometry x="320" y="420" width="120" height="80" as="geometry" />
        </mxCell>
        <mxCell id="pCDew1cv899dJtl3083m-30" value="" style="ellipse;shape=cloud;whiteSpace=wrap;html=1;" vertex="1" parent="1">
          <mxGeometry x="90" y="420" width="120" height="80" as="geometry" />
        </mxCell>
        <mxCell id="pCDew1cv899dJtl3083m-17" value="Blockchair&lt;div&gt;API&lt;/div&gt;" style="text;html=1;align=center;verticalAlign=middle;whiteSpace=wrap;rounded=0;" vertex="1" parent="1">
          <mxGeometry x="120" y="450" width="60" height="30" as="geometry" />
        </mxCell>
        <mxCell id="pCDew1cv899dJtl3083m-19" value="EtherScan&lt;div&gt;API&lt;/div&gt;" style="text;html=1;align=center;verticalAlign=middle;whiteSpace=wrap;rounded=0;" vertex="1" parent="1">
          <mxGeometry x="360" y="450" width="60" height="30" as="geometry" />
        </mxCell>
        <mxCell id="pCDew1cv899dJtl3083m-21" value="" style="rounded=0;whiteSpace=wrap;html=1;rotation=0;direction=south;" vertex="1" parent="1">
          <mxGeometry x="670" y="572.5" width="120" height="240" as="geometry" />
        </mxCell>
        <mxCell id="pCDew1cv899dJtl3083m-22" value="Sepolia ETH Blockchain" style="text;html=1;align=center;verticalAlign=middle;whiteSpace=wrap;rounded=0;" vertex="1" parent="1">
          <mxGeometry x="700" y="837.5" width="60" height="30" as="geometry" />
        </mxCell>
        <mxCell id="pCDew1cv899dJtl3083m-23" value="" style="shape=note;whiteSpace=wrap;html=1;backgroundOutline=1;darkOpacity=0.05;" vertex="1" parent="1">
          <mxGeometry x="695" y="587.5" width="65" height="75" as="geometry" />
        </mxCell>
        <mxCell id="pCDew1cv899dJtl3083m-24" value="" style="shape=note;whiteSpace=wrap;html=1;backgroundOutline=1;darkOpacity=0.05;" vertex="1" parent="1">
          <mxGeometry x="695" y="712.5" width="70" height="75" as="geometry" />
        </mxCell>
        <mxCell id="pCDew1cv899dJtl3083m-25" value="Savings&lt;div&gt;Contract&lt;/div&gt;" style="text;html=1;align=center;verticalAlign=middle;whiteSpace=wrap;rounded=0;" vertex="1" parent="1">
          <mxGeometry x="695" y="627.5" width="60" height="30" as="geometry" />
        </mxCell>
        <mxCell id="pCDew1cv899dJtl3083m-26" value="Lending&lt;div&gt;Contract&lt;/div&gt;" style="text;html=1;align=center;verticalAlign=middle;whiteSpace=wrap;rounded=0;" vertex="1" parent="1">
          <mxGeometry x="695" y="752.5" width="60" height="30" as="geometry" />
        </mxCell>
        <mxCell id="pCDew1cv899dJtl3083m-27" value="" style="shape=cube;whiteSpace=wrap;html=1;boundedLbl=1;backgroundOutline=1;darkOpacity=0.05;darkOpacity2=0.1;" vertex="1" parent="1">
          <mxGeometry x="30" y="550" width="560" height="310" as="geometry" />
        </mxCell>
        <mxCell id="pCDew1cv899dJtl3083m-14" value="" style="rounded=1;whiteSpace=wrap;html=1;" vertex="1" parent="1">
          <mxGeometry x="70" y="590" width="480" height="200" as="geometry" />
        </mxCell>
        <mxCell id="pCDew1cv899dJtl3083m-9" value="" style="edgeStyle=orthogonalEdgeStyle;rounded=0;orthogonalLoop=1;jettySize=auto;html=1;entryX=0;entryY=0.5;entryDx=0;entryDy=0;" edge="1" parent="1" source="pCDew1cv899dJtl3083m-1" target="pCDew1cv899dJtl3083m-2">
          <mxGeometry relative="1" as="geometry" />
        </mxCell>
        <mxCell id="pCDew1cv899dJtl3083m-1" value="" style="rounded=1;whiteSpace=wrap;html=1;" vertex="1" parent="1">
          <mxGeometry x="100" y="660" width="80" height="40" as="geometry" />
        </mxCell>
        <mxCell id="pCDew1cv899dJtl3083m-2" value="" style="rounded=1;whiteSpace=wrap;html=1;" vertex="1" parent="1">
          <mxGeometry x="220" y="660" width="80" height="40" as="geometry" />
        </mxCell>
        <mxCell id="pCDew1cv899dJtl3083m-44" value="" style="edgeStyle=orthogonalEdgeStyle;rounded=0;orthogonalLoop=1;jettySize=auto;html=1;" edge="1" parent="1" source="pCDew1cv899dJtl3083m-3" target="pCDew1cv899dJtl3083m-34">
          <mxGeometry relative="1" as="geometry" />
        </mxCell>
        <mxCell id="pCDew1cv899dJtl3083m-3" value="" style="rounded=1;whiteSpace=wrap;html=1;" vertex="1" parent="1">
          <mxGeometry x="340" y="620" width="80" height="40" as="geometry" />
        </mxCell>
        <mxCell id="pCDew1cv899dJtl3083m-45" value="" style="edgeStyle=orthogonalEdgeStyle;rounded=0;orthogonalLoop=1;jettySize=auto;html=1;entryX=0;entryY=0.5;entryDx=0;entryDy=0;" edge="1" parent="1" source="pCDew1cv899dJtl3083m-4" target="pCDew1cv899dJtl3083m-34">
          <mxGeometry relative="1" as="geometry" />
        </mxCell>
        <mxCell id="pCDew1cv899dJtl3083m-4" value="" style="rounded=1;whiteSpace=wrap;html=1;" vertex="1" parent="1">
          <mxGeometry x="340" y="700" width="80" height="40" as="geometry" />
        </mxCell>
        <mxCell id="pCDew1cv899dJtl3083m-5" value="/" style="text;html=1;align=center;verticalAlign=middle;whiteSpace=wrap;rounded=0;" vertex="1" parent="1">
          <mxGeometry x="110" y="665" width="60" height="30" as="geometry" />
        </mxCell>
        <mxCell id="pCDew1cv899dJtl3083m-12" value="" style="edgeStyle=orthogonalEdgeStyle;rounded=0;orthogonalLoop=1;jettySize=auto;html=1;" edge="1" parent="1">
          <mxGeometry relative="1" as="geometry">
            <mxPoint x="300" y="680" as="sourcePoint" />
            <mxPoint x="380" y="700" as="targetPoint" />
          </mxGeometry>
        </mxCell>
        <mxCell id="pCDew1cv899dJtl3083m-6" value="/home" style="text;html=1;align=center;verticalAlign=middle;whiteSpace=wrap;rounded=0;" vertex="1" parent="1">
          <mxGeometry x="230" y="665" width="60" height="30" as="geometry" />
        </mxCell>
        <mxCell id="pCDew1cv899dJtl3083m-7" value="/savings" style="text;html=1;align=center;verticalAlign=middle;whiteSpace=wrap;rounded=0;" vertex="1" parent="1">
          <mxGeometry x="350" y="625" width="60" height="30" as="geometry" />
        </mxCell>
        <mxCell id="pCDew1cv899dJtl3083m-8" value="/loan" style="text;html=1;align=center;verticalAlign=middle;whiteSpace=wrap;rounded=0;" vertex="1" parent="1">
          <mxGeometry x="350" y="705" width="60" height="30" as="geometry" />
        </mxCell>
        <mxCell id="pCDew1cv899dJtl3083m-13" value="" style="edgeStyle=orthogonalEdgeStyle;rounded=0;orthogonalLoop=1;jettySize=auto;html=1;entryX=0.5;entryY=1;entryDx=0;entryDy=0;" edge="1" parent="1" target="pCDew1cv899dJtl3083m-3">
          <mxGeometry relative="1" as="geometry">
            <mxPoint x="300" y="690" as="sourcePoint" />
            <mxPoint x="390" y="715" as="targetPoint" />
            <Array as="points">
              <mxPoint x="300" y="680" />
              <mxPoint x="380" y="680" />
            </Array>
          </mxGeometry>
        </mxCell>
        <mxCell id="pCDew1cv899dJtl3083m-15" value="Next.js application" style="text;html=1;align=center;verticalAlign=middle;whiteSpace=wrap;rounded=0;" vertex="1" parent="1">
          <mxGeometry x="285" y="750" width="60" height="30" as="geometry" />
        </mxCell>
        <mxCell id="pCDew1cv899dJtl3083m-28" value="AWS Elastic Beanstalk" style="text;html=1;align=center;verticalAlign=middle;whiteSpace=wrap;rounded=0;" vertex="1" parent="1">
          <mxGeometry x="285" y="820" width="60" height="30" as="geometry" />
        </mxCell>
        <mxCell id="pCDew1cv899dJtl3083m-32" value="" style="shape=parallelogram;perimeter=parallelogramPerimeter;whiteSpace=wrap;html=1;fixedSize=1;" vertex="1" parent="1">
          <mxGeometry x="460" y="627.5" width="70" height="40" as="geometry" />
        </mxCell>
        <mxCell id="pCDew1cv899dJtl3083m-48" value="" style="edgeStyle=orthogonalEdgeStyle;rounded=0;orthogonalLoop=1;jettySize=auto;html=1;entryX=0;entryY=0.5;entryDx=0;entryDy=0;entryPerimeter=0;" edge="1" parent="1" source="pCDew1cv899dJtl3083m-33" target="pCDew1cv899dJtl3083m-23">
          <mxGeometry relative="1" as="geometry">
            <mxPoint x="605" y="720" as="targetPoint" />
            <Array as="points">
              <mxPoint x="610" y="720" />
              <mxPoint x="610" y="625" />
            </Array>
          </mxGeometry>
        </mxCell>
        <mxCell id="pCDew1cv899dJtl3083m-33" value="" style="shape=parallelogram;perimeter=parallelogramPerimeter;whiteSpace=wrap;html=1;fixedSize=1;" vertex="1" parent="1">
          <mxGeometry x="460" y="700" width="70" height="40" as="geometry" />
        </mxCell>
        <mxCell id="pCDew1cv899dJtl3083m-46" value="" style="edgeStyle=orthogonalEdgeStyle;rounded=0;orthogonalLoop=1;jettySize=auto;html=1;exitX=0.5;exitY=1;exitDx=0;exitDy=0;entryX=0.5;entryY=0;entryDx=0;entryDy=0;" edge="1" parent="1" source="pCDew1cv899dJtl3083m-32" target="pCDew1cv899dJtl3083m-33">
          <mxGeometry relative="1" as="geometry">
            <mxPoint x="495" y="680" as="sourcePoint" />
          </mxGeometry>
        </mxCell>
        <mxCell id="pCDew1cv899dJtl3083m-34" value="Wagmi" style="text;html=1;align=center;verticalAlign=middle;whiteSpace=wrap;rounded=0;" vertex="1" parent="1">
          <mxGeometry x="465" y="635" width="60" height="30" as="geometry" />
        </mxCell>
        <mxCell id="pCDew1cv899dJtl3083m-35" value="Viem" style="text;html=1;align=center;verticalAlign=middle;whiteSpace=wrap;rounded=0;" vertex="1" parent="1">
          <mxGeometry x="465" y="710" width="60" height="30" as="geometry" />
        </mxCell>
        <mxCell id="pCDew1cv899dJtl3083m-36" value="" style="endArrow=classic;html=1;rounded=0;entryX=0.356;entryY=0.968;entryDx=0;entryDy=0;entryPerimeter=0;exitX=0.439;exitY=0.95;exitDx=0;exitDy=0;exitPerimeter=0;" edge="1" parent="1" source="pCDew1cv899dJtl3083m-30">
          <mxGeometry width="50" height="50" relative="1" as="geometry">
            <mxPoint x="500" y="600" as="sourcePoint" />
            <mxPoint x="140" y="660" as="targetPoint" />
            <Array as="points" />
          </mxGeometry>
        </mxCell>
        <mxCell id="pCDew1cv899dJtl3083m-37" value="" style="endArrow=classic;html=1;rounded=0;exitX=0.55;exitY=0.95;exitDx=0;exitDy=0;exitPerimeter=0;" edge="1" parent="1" source="pCDew1cv899dJtl3083m-31">
          <mxGeometry width="50" height="50" relative="1" as="geometry">
            <mxPoint x="320" y="466" as="sourcePoint" />
            <mxPoint x="384" y="620" as="targetPoint" />
          </mxGeometry>
        </mxCell>
        <mxCell id="pCDew1cv899dJtl3083m-38" value="" style="endArrow=classic;html=1;rounded=0;entryX=1;entryY=0.25;entryDx=0;entryDy=0;exitX=0.55;exitY=0.95;exitDx=0;exitDy=0;exitPerimeter=0;" edge="1" parent="1" source="pCDew1cv899dJtl3083m-31" target="pCDew1cv899dJtl3083m-4">
          <mxGeometry width="50" height="50" relative="1" as="geometry">
            <mxPoint x="380" y="600" as="sourcePoint" />
            <mxPoint x="500" y="600" as="targetPoint" />
            <Array as="points">
              <mxPoint x="386" y="600" />
              <mxPoint x="430" y="600" />
              <mxPoint x="430" y="710" />
            </Array>
          </mxGeometry>
        </mxCell>
        <mxCell id="pCDew1cv899dJtl3083m-43" value="" style="edgeStyle=orthogonalEdgeStyle;rounded=0;orthogonalLoop=1;jettySize=auto;html=1;" edge="1" parent="1" source="pCDew1cv899dJtl3083m-40" target="pCDew1cv899dJtl3083m-1">
          <mxGeometry relative="1" as="geometry" />
        </mxCell>
        <mxCell id="pCDew1cv899dJtl3083m-40" value="" style="shape=actor;whiteSpace=wrap;html=1;" vertex="1" parent="1">
          <mxGeometry x="-50" y="650" width="40" height="60" as="geometry" />
        </mxCell>
        <mxCell id="pCDew1cv899dJtl3083m-42" value="users" style="text;html=1;align=center;verticalAlign=middle;whiteSpace=wrap;rounded=0;" vertex="1" parent="1">
          <mxGeometry x="-60" y="710" width="60" height="30" as="geometry" />
        </mxCell>
        <mxCell id="pCDew1cv899dJtl3083m-49" value="" style="edgeStyle=orthogonalEdgeStyle;rounded=0;orthogonalLoop=1;jettySize=auto;html=1;entryX=0;entryY=0.5;entryDx=0;entryDy=0;entryPerimeter=0;" edge="1" parent="1" target="pCDew1cv899dJtl3083m-24">
          <mxGeometry relative="1" as="geometry">
            <mxPoint x="520" y="720" as="sourcePoint" />
            <mxPoint x="705" y="635" as="targetPoint" />
            <Array as="points">
              <mxPoint x="520" y="721" />
              <mxPoint x="610" y="721" />
              <mxPoint x="610" y="750" />
            </Array>
          </mxGeometry>
        </mxCell>
      </root>
    </mxGraphModel>
  </diagram>
</mxfile>
